<svg width="32" height="32" viewBox="0 0 32 32" fill="none" xmlns="http://www.w3.org/2000/svg">
<path d="M16.0002 28.0415C22.6504 28.0415 28.0415 22.6504 28.0415 16.0002C28.0415 9.35003 22.6504 3.95898 16.0002 3.95898C9.35003 3.95898 3.95898 9.35003 3.95898 16.0002C3.95898 22.6504 9.35003 28.0415 16.0002 28.0415Z" fill="#E95B43"/>
<path fill-rule="evenodd" clip-rule="evenodd" d="M15.9995 10.0098C16.546 10.0098 16.9891 10.4529 16.9891 10.9995V16.3328C16.9891 16.8794 16.546 17.3225 15.9995 17.3225C15.4529 17.3225 15.0098 16.8794 15.0098 16.3328V10.9995C15.0098 10.4529 15.4529 10.0098 15.9995 10.0098Z" fill="white"/>
<path fill-rule="evenodd" clip-rule="evenodd" d="M15.0098 21.1127C15.0098 20.5661 15.4529 20.123 15.9995 20.123H16.0124C16.559 20.123 17.0021 20.5661 17.0021 21.1127C17.0021 21.6593 16.559 22.1024 16.0124 22.1024H15.9995C15.4529 22.1024 15.0098 21.6593 15.0098 21.1127Z" fill="white"/>
</svg>
