<svg width="18" height="18" viewBox="0 0 18 18" fill="none" xmlns="http://www.w3.org/2000/svg">
<g id="18px/ic-&#229;&#159;&#186;&#231;&#161;&#128;&#228;&#191;&#161;&#230;&#129;&#175;&#230;&#159;&#165;&#232;&#175;&#162;">
<g id="Group 48096666">
<path id="&#232;&#183;&#175;&#229;&#190;&#132;" d="M12 16.2857H4.85714C3.27919 16.2857 2 15.0065 2 13.4286V4.85714C2 3.27919 3.27919 2 4.85714 2H13.4286C15.0065 2 16.2857 3.27919 16.2857 4.85714V12" stroke="#435160" stroke-width="1.5" stroke-linejoin="bevel"/>
<path id="&#232;&#183;&#175;&#229;&#190;&#132;_2" fill-rule="evenodd" clip-rule="evenodd" d="M12 16.2857V13.7143C12 12.7675 12.7675 12 13.7143 12H16.2857L14.1429 14.1429L12 16.2857Z" stroke="#435160" stroke-width="1.5" stroke-linecap="round" stroke-linejoin="round"/>
<rect id="&#231;&#159;&#169;&#229;&#189;&#162;&#229;&#164;&#135;&#228;&#187;&#189; 4" x="4.85718" y="5.14282" width="8.57143" height="1.5" rx="0.75" fill="#435160"/>
<path id="&#231;&#159;&#169;&#229;&#189;&#162;&#229;&#164;&#135;&#228;&#187;&#189; 5" d="M4.99997 8.89282C4.99997 8.4786 5.33575 8.14282 5.74997 8.14282H11.3928C11.807 8.14282 12.1428 8.4786 12.1428 8.89282V8.89282C12.1428 9.30703 11.807 9.64282 11.3928 9.64282H5.74997C5.33575 9.64282 4.99997 9.30703 4.99997 8.89282V8.89282Z" fill="#435160"/>
<path id="&#231;&#159;&#169;&#229;&#189;&#162;&#229;&#164;&#135;&#228;&#187;&#189; 7" d="M4.85718 11.8928C4.85718 11.4786 5.19296 11.1428 5.60718 11.1428H8.39289C8.80711 11.1428 9.14289 11.4786 9.14289 11.8928V11.8928C9.14289 12.307 8.80711 12.6428 8.39289 12.6428H5.60718C5.19296 12.6428 4.85718 12.307 4.85718 11.8928V11.8928Z" fill="#435160"/>
</g>
</g>
</svg>
