<svg width="24" height="24" viewBox="0 0 24 24" fill="none" xmlns="http://www.w3.org/2000/svg">
<g id="ic-&#229;&#136;&#160;&#233;&#153;&#164;&#229;&#144;&#136;&#233;&#155;&#134;">
<g id="ic-add">
<g id="Group 48096679">
<path id="Vector" d="M7 7.25C6.58579 7.25 6.25 7.58579 6.25 8C6.25 8.41421 6.58579 8.75 7 8.75V7.25ZM17 8.75C17.4142 8.75 17.75 8.41421 17.75 8C17.75 7.58579 17.4142 7.25 17 7.25V8.75ZM7 8.75L17 8.75V7.25L7 7.25V8.75Z" fill="#435160"/>
<path id="Vector_2" d="M10 4.75C9.58579 4.75 9.25 5.08579 9.25 5.5C9.25 5.91421 9.58579 6.25 10 6.25V4.75ZM14 6.25C14.4142 6.25 14.75 5.91421 14.75 5.5C14.75 5.08579 14.4142 4.75 14 4.75V6.25ZM10 6.25H14V4.75H10V6.25Z" fill="#435160"/>
</g>
<path id="Rectangle 1458" d="M8 8V15.6C8 16.4401 8 16.8601 8.16349 17.181C8.3073 17.4632 8.53677 17.6927 8.81901 17.8365C9.13988 18 9.55992 18 10.4 18H13.6C14.4401 18 14.8601 18 15.181 17.8365C15.4632 17.6927 15.6927 17.4632 15.8365 17.181C16 16.8601 16 16.4401 16 15.6V8" stroke="#435160" stroke-width="1.5" stroke-linecap="round" stroke-linejoin="round"/>
</g>
</g>
</svg>
