<svg width="24" height="24" viewBox="0 0 24 24" fill="none" xmlns="http://www.w3.org/2000/svg">
<path d="M11 6.75C11.4142 6.75 11.75 6.41421 11.75 6C11.75 5.58579 11.4142 5.25 11 5.25V6.75ZM18.75 9.57143C18.75 9.15722 18.4142 8.82143 18 8.82143C17.5858 8.82143 17.25 9.15722 17.25 9.57143H18.75ZM16 17.25H8V18.75H16V17.25ZM6.75 16V8H5.25V16H6.75ZM8 6.75H11V5.25H8V6.75ZM17.25 12V16H18.75V12H17.25ZM17.25 9.57143V12H18.75V9.57143H17.25ZM8 17.25C7.30964 17.25 6.75 16.6904 6.75 16H5.25C5.25 17.5188 6.48122 18.75 8 18.75V17.25ZM16 18.75C17.5188 18.75 18.75 17.5188 18.75 16H17.25C17.25 16.6904 16.6904 17.25 16 17.25V18.75ZM6.75 8C6.75 7.30964 7.30964 6.75 8 6.75V5.25C6.48122 5.25 5.25 6.48122 5.25 8H6.75Z" fill="#435160"/>
<path d="M11.5376 11.5229C11.2407 11.2341 11.2341 10.7593 11.5229 10.4624L16.5653 5.27784C16.8541 4.98091 17.3289 4.97431 17.6258 5.2631C17.9228 5.5519 17.9294 6.02673 17.6406 6.32366L12.5982 11.5082C12.3094 11.8051 11.8346 11.8117 11.5376 11.5229Z" fill="#435160"/>
</svg>
