<svg width="18" height="18" viewBox="0 0 18 18" fill="none" xmlns="http://www.w3.org/2000/svg">
<path fill-rule="evenodd" clip-rule="evenodd" d="M9.76143 3.36546C9.52082 3.1297 9.20093 3 8.86041 3C8.52035 3 8.20023 3.1297 7.95821 3.36684L2.33958 8.96903C2.15103 9.15704 2.04573 9.40565 2.04362 9.66896L2 14.6231C2 15.3823 2.63086 16 3.40665 16H6.96971V12.8856C6.96971 11.8585 7.8182 11.0229 8.86111 11.0229C9.88596 11.0229 10.7197 11.8585 10.7197 12.8856V16H14.3156C15.0911 16 15.7222 15.3823 15.7222 14.6231V9.79407C15.7222 9.52984 15.6186 9.27985 15.4307 9.09001L9.76143 3.36546Z" stroke="#435160" stroke-width="1.5" stroke-linecap="round" stroke-linejoin="round"/>
</svg>
