<svg width="16" height="16" viewBox="0 0 16 16" fill="none" xmlns="http://www.w3.org/2000/svg">
    <path fill-rule="evenodd" clip-rule="evenodd"
        d="M2.66665 3.9987C2.66665 3.26232 3.2636 2.66536 3.99998 2.66536H6.51503C6.83332 2.66536 7.1411 2.77922 7.38275 2.98636L8.96711 4.34437C9.20877 4.55151 9.51655 4.66536 9.83483 4.66536H12C12.7364 4.66536 13.3333 5.26232 13.3333 5.9987V11.9987C13.3333 12.7351 12.7364 13.332 12 13.332H3.99998C3.2636 13.332 2.66665 12.7351 2.66665 11.9987V10.9987C2.66665 10.6305 2.36817 10.332 1.99998 10.332C1.63179 10.332 1.33331 10.6305 1.33331 10.9987V11.9987C1.33331 13.4715 2.52722 14.6654 3.99998 14.6654H12C13.4727 14.6654 14.6666 13.4715 14.6666 11.9987V5.9987C14.6666 4.52594 13.4727 3.33203 12 3.33203H9.83483L8.25048 1.97401C7.76716 1.55974 7.1516 1.33203 6.51503 1.33203H3.99998C2.52722 1.33203 1.33331 2.52594 1.33331 3.9987V4.9987C1.33331 5.36689 1.63179 5.66536 1.99998 5.66536C2.36817 5.66536 2.66665 5.36689 2.66665 4.9987V3.9987ZM6.19524 5.52729C6.45559 5.26694 6.8777 5.26694 7.13805 5.52729L9.13757 7.52682L9.14238 7.53166C9.20415 7.59456 9.25093 7.66666 9.28273 7.74351C9.31508 7.82153 9.33305 7.90703 9.33331 7.9967L9.33331 7.9987L9.33331 8.0007C9.33278 8.18179 9.26004 8.34589 9.14238 8.46573L9.13757 8.47058L7.13805 10.4701C6.8777 10.7305 6.45559 10.7305 6.19524 10.4701C5.93489 10.2098 5.93489 9.78764 6.19524 9.52729L7.05717 8.66536H1.99998C1.63179 8.66536 1.33331 8.36689 1.33331 7.9987C1.33331 7.63051 1.63179 7.33203 1.99998 7.33203H7.05717L6.19524 6.4701C5.93489 6.20975 5.93489 5.78764 6.19524 5.52729Z"
        fill="#435160" />
</svg>