<svg width="18" height="18" viewBox="0 0 18 18" fill="none" xmlns="http://www.w3.org/2000/svg">
<g id="18px/ ic-&#231;&#148;&#168;&#230;&#136;&#183;&#230;&#181;&#129;&#231;&#168;&#139;&#229;&#185;&#178;&#233;&#162;&#132;">
<path id="Icon" d="M7.4411 10.7119L7.10061 11.3801L7.4411 10.7119ZM7.28815 10.5589L6.61989 10.8994L7.28815 10.5589ZM10.7119 10.5589L11.3801 10.8994L10.7119 10.5589ZM10.5589 10.7119L10.8994 11.3801L10.5589 10.7119ZM10.5589 7.28815L10.8994 6.61989L10.5589 7.28815ZM10.7119 7.4411L11.3801 7.10061L10.7119 7.4411ZM7.4411 7.28815L7.10061 6.61989L7.4411 7.28815ZM7.28815 7.4411L6.61989 7.10061L7.28815 7.4411ZM12.6911 15.9619L12.3506 16.6301L12.6911 15.9619ZM12.5381 15.8089L11.8699 16.1494L12.5381 15.8089ZM15.9619 15.8089L16.6301 16.1494L15.9619 15.8089ZM15.8089 15.9619L16.1494 16.6301L15.8089 15.9619ZM15.8089 12.5381L16.1494 11.8699L15.8089 12.5381ZM15.9619 12.6911L16.6301 12.3506L15.9619 12.6911ZM12.6911 12.5381L12.3506 11.8699L12.6911 12.5381ZM12.5381 12.6911L11.8699 12.3506L12.5381 12.6911ZM2.1911 5.46185L1.85061 6.13011L2.1911 5.46185ZM2.03815 5.3089L1.36989 5.64939L2.03815 5.3089ZM5.46185 5.3089L6.13011 5.64939L5.46185 5.3089ZM5.3089 5.46185L5.64939 6.13011L5.3089 5.46185ZM5.3089 2.03815L5.64939 1.36989L5.3089 2.03815ZM5.46185 2.1911L6.13011 1.85061L5.46185 2.1911ZM2.1911 2.03815L1.85061 1.36989L2.1911 2.03815ZM2.03815 2.1911L1.36989 1.85061L2.03815 2.1911ZM8.3 3C7.88579 3 7.55 3.33579 7.55 3.75C7.55 4.16421 7.88579 4.5 8.3 4.5V3ZM15.5434 8.13576L16.2363 8.42277L16.2363 8.42277L15.5434 8.13576ZM13.55 8.25C13.1358 8.25 12.8 8.58579 12.8 9C12.8 9.41421 13.1358 9.75 13.55 9.75V8.25ZM14.7858 8.89343L15.0728 9.58634L15.0728 9.58634L14.7858 8.89343ZM14.8856 3.90259L14.5451 4.57085L14.5451 4.57085L14.8856 3.90259ZM15.4974 4.51441L14.8292 4.85491L14.8292 4.85491L15.4974 4.51441ZM9.7 15C10.1142 15 10.45 14.6642 10.45 14.25C10.45 13.8358 10.1142 13.5 9.7 13.5V15ZM2.50259 13.4856L1.83434 13.8261L2.50259 13.4856ZM3.11441 14.0974L3.45491 13.4292L3.45491 13.4292L3.11441 14.0974ZM4.45 9.75C4.86421 9.75 5.2 9.41421 5.2 9C5.2 8.58579 4.86421 8.25 4.45 8.25V9.75ZM3.21424 9.10657L2.92723 8.41366L2.92723 8.41366L3.21424 9.10657ZM2.45657 9.86424L1.76366 9.57723L1.76366 9.57723L2.45657 9.86424ZM7.81 8H10.19V6.5H7.81V8ZM10 7.81V10.19H11.5V7.81H10ZM10.19 10H7.81V11.5H10.19V10ZM8 10.19V7.81H6.5V10.19H8ZM7.81 10C7.75928 10 7.7228 9.99998 7.69198 9.9995C7.66113 9.99901 7.64673 9.99817 7.64119 9.99772C7.63595 9.99729 7.64991 9.99804 7.67468 10.0039C7.70183 10.0103 7.73951 10.0222 7.7816 10.0436L7.10061 11.3801C7.2614 11.462 7.4143 11.4842 7.51905 11.4927C7.61503 11.5006 7.72437 11.5 7.81 11.5V10ZM6.5 10.19C6.5 10.2756 6.49942 10.385 6.50726 10.481C6.51582 10.5857 6.53797 10.7386 6.61989 10.8994L7.9564 10.2184C7.97784 10.2605 7.98973 10.2982 7.99612 10.3253C8.00196 10.3501 8.00271 10.3641 8.00228 10.3588C8.00183 10.3533 8.00099 10.3389 8.0005 10.308C8.00002 10.2772 8 10.2407 8 10.19H6.5ZM7.7816 10.0436C7.85686 10.0819 7.91805 10.1431 7.9564 10.2184L6.61989 10.8994C6.72535 11.1064 6.89363 11.2746 7.10061 11.3801L7.7816 10.0436ZM10 10.19C10 10.2407 9.99998 10.2772 9.9995 10.308C9.99901 10.3389 9.99817 10.3533 9.99772 10.3588C9.99729 10.3641 9.99804 10.3501 10.0039 10.3253C10.0103 10.2982 10.0222 10.2605 10.0436 10.2184L11.3801 10.8994C11.462 10.7386 11.4842 10.5857 11.4927 10.481C11.5006 10.385 11.5 10.2756 11.5 10.19H10ZM10.19 11.5C10.2756 11.5 10.385 11.5006 10.481 11.4927C10.5857 11.4842 10.7386 11.462 10.8994 11.3801L10.2184 10.0436C10.2605 10.0222 10.2982 10.0103 10.3253 10.0039C10.3501 9.99804 10.3641 9.99729 10.3588 9.99772C10.3533 9.99817 10.3389 9.99901 10.308 9.9995C10.2772 9.99998 10.2407 10 10.19 10V11.5ZM10.0436 10.2184C10.0819 10.1431 10.1431 10.0819 10.2184 10.0436L10.8994 11.3801C11.1064 11.2746 11.2746 11.1064 11.3801 10.8994L10.0436 10.2184ZM10.19 8C10.2407 8 10.2772 8.00002 10.308 8.0005C10.3389 8.00099 10.3533 8.00183 10.3588 8.00228C10.3641 8.00271 10.3501 8.00196 10.3253 7.99612C10.2982 7.98973 10.2605 7.97784 10.2184 7.9564L10.8994 6.61989C10.7386 6.53797 10.5857 6.51582 10.481 6.50726C10.385 6.49942 10.2756 6.5 10.19 6.5V8ZM11.5 7.81C11.5 7.72437 11.5006 7.61503 11.4927 7.51905C11.4842 7.4143 11.462 7.2614 11.3801 7.10061L10.0436 7.7816C10.0222 7.73951 10.0103 7.70183 10.0039 7.67468C9.99804 7.64991 9.99729 7.63595 9.99772 7.64119C9.99817 7.64673 9.99901 7.66113 9.9995 7.69198C9.99998 7.7228 10 7.75928 10 7.81H11.5ZM10.2184 7.9564C10.1431 7.91805 10.0819 7.85686 10.0436 7.7816L11.3801 7.10061C11.2746 6.89363 11.1064 6.72535 10.8994 6.61989L10.2184 7.9564ZM7.81 6.5C7.72437 6.5 7.61504 6.49942 7.51905 6.50726C7.4143 6.51582 7.2614 6.53797 7.10061 6.61989L7.7816 7.9564C7.73951 7.97784 7.70183 7.98973 7.67468 7.99612C7.64991 8.00196 7.63595 8.00271 7.64119 8.00228C7.64673 8.00183 7.66113 8.00099 7.69198 8.0005C7.7228 8.00002 7.75928 8 7.81 8V6.5ZM8 7.81C8 7.75928 8.00002 7.7228 8.0005 7.69198C8.00099 7.66113 8.00183 7.64673 8.00228 7.64119C8.00271 7.63595 8.00196 7.64991 7.99612 7.67468C7.98973 7.70183 7.97784 7.73951 7.9564 7.7816L6.61989 7.10061C6.53797 7.2614 6.51582 7.4143 6.50726 7.51905C6.49942 7.61504 6.5 7.72437 6.5 7.81H8ZM7.10061 6.61989C6.89363 6.72535 6.72535 6.89363 6.61989 7.10061L7.9564 7.7816C7.91805 7.85686 7.85686 7.91805 7.7816 7.9564L7.10061 6.61989ZM13.06 13.25H15.44V11.75H13.06V13.25ZM15.25 13.06V15.44H16.75V13.06H15.25ZM15.44 15.25H13.06V16.75H15.44V15.25ZM13.25 15.44V13.06H11.75V15.44H13.25ZM13.06 15.25C13.0093 15.25 12.9728 15.25 12.942 15.2495C12.9111 15.249 12.8967 15.2482 12.8912 15.2477C12.8859 15.2473 12.8999 15.248 12.9247 15.2539C12.9518 15.2603 12.9895 15.2722 13.0316 15.2936L12.3506 16.6301C12.5114 16.712 12.6643 16.7342 12.769 16.7427C12.865 16.7506 12.9744 16.75 13.06 16.75V15.25ZM11.75 15.44C11.75 15.5256 11.7494 15.635 11.7573 15.731C11.7658 15.8357 11.788 15.9886 11.8699 16.1494L13.2064 15.4684C13.2278 15.5105 13.2397 15.5482 13.2461 15.5753C13.252 15.6001 13.2527 15.6141 13.2523 15.6088C13.2518 15.6033 13.251 15.5889 13.2505 15.558C13.25 15.5272 13.25 15.4907 13.25 15.44H11.75ZM13.0316 15.2936C13.1069 15.3319 13.1681 15.3931 13.2064 15.4684L11.8699 16.1494C11.9754 16.3564 12.1436 16.5246 12.3506 16.6301L13.0316 15.2936ZM15.25 15.44C15.25 15.4907 15.25 15.5272 15.2495 15.558C15.249 15.5889 15.2482 15.6033 15.2477 15.6088C15.2473 15.6141 15.248 15.6001 15.2539 15.5753C15.2603 15.5482 15.2722 15.5105 15.2936 15.4684L16.6301 16.1494C16.712 15.9886 16.7342 15.8357 16.7427 15.731C16.7506 15.635 16.75 15.5256 16.75 15.44H15.25ZM15.44 16.75C15.5256 16.75 15.635 16.7506 15.731 16.7427C15.8357 16.7342 15.9886 16.712 16.1494 16.6301L15.4684 15.2936C15.5105 15.2722 15.5482 15.2603 15.5753 15.2539C15.6001 15.248 15.6141 15.2473 15.6088 15.2477C15.6033 15.2482 15.5889 15.249 15.558 15.2495C15.5272 15.25 15.4907 15.25 15.44 15.25V16.75ZM15.2936 15.4684C15.3319 15.3931 15.3931 15.3319 15.4684 15.2936L16.1494 16.6301C16.3564 16.5246 16.5246 16.3564 16.6301 16.1494L15.2936 15.4684ZM15.44 13.25C15.4907 13.25 15.5272 13.25 15.558 13.2505C15.5889 13.251 15.6033 13.2518 15.6088 13.2523C15.6141 13.2527 15.6001 13.252 15.5753 13.2461C15.5482 13.2397 15.5105 13.2278 15.4684 13.2064L16.1494 11.8699C15.9886 11.788 15.8357 11.7658 15.731 11.7573C15.635 11.7494 15.5256 11.75 15.44 11.75V13.25ZM16.75 13.06C16.75 12.9744 16.7506 12.865 16.7427 12.769C16.7342 12.6643 16.712 12.5114 16.6301 12.3506L15.2936 13.0316C15.2722 12.9895 15.2603 12.9518 15.2539 12.9247C15.248 12.8999 15.2473 12.8859 15.2477 12.8912C15.2482 12.8967 15.249 12.9111 15.2495 12.942C15.25 12.9728 15.25 13.0093 15.25 13.06H16.75ZM15.4684 13.2064C15.3931 13.1681 15.3319 13.1069 15.2936 13.0316L16.6301 12.3506C16.5246 12.1436 16.3564 11.9754 16.1494 11.8699L15.4684 13.2064ZM13.06 11.75C12.9744 11.75 12.865 11.7494 12.769 11.7573C12.6643 11.7658 12.5114 11.788 12.3506 11.8699L13.0316 13.2064C12.9895 13.2278 12.9518 13.2397 12.9247 13.2461C12.8999 13.252 12.8859 13.2527 12.8912 13.2523C12.8967 13.2518 12.9111 13.251 12.942 13.2505C12.9728 13.25 13.0093 13.25 13.06 13.25V11.75ZM13.25 13.06C13.25 13.0093 13.25 12.9728 13.2505 12.942C13.251 12.9111 13.2518 12.8967 13.2523 12.8912C13.2527 12.8859 13.252 12.8999 13.2461 12.9247C13.2397 12.9518 13.2278 12.9895 13.2064 13.0316L11.8699 12.3506C11.788 12.5114 11.7658 12.6643 11.7573 12.769C11.7494 12.865 11.75 12.9744 11.75 13.06H13.25ZM12.3506 11.8699C12.1436 11.9754 11.9754 12.1436 11.8699 12.3506L13.2064 13.0316C13.1681 13.1069 13.1069 13.1681 13.0316 13.2064L12.3506 11.8699ZM2.56 2.75H4.94V1.25H2.56V2.75ZM4.75 2.56V4.94H6.25V2.56H4.75ZM4.94 4.75H2.56V6.25H4.94V4.75ZM2.75 4.94V2.56H1.25V4.94H2.75ZM2.56 4.75C2.50928 4.75 2.4728 4.74998 2.44198 4.7495C2.41113 4.74901 2.39673 4.74817 2.39119 4.74772C2.38595 4.74729 2.39991 4.74804 2.42468 4.75388C2.45183 4.76027 2.48951 4.77216 2.5316 4.7936L1.85061 6.13011C2.0114 6.21203 2.1643 6.23418 2.26905 6.24274C2.36504 6.25058 2.47437 6.25 2.56 6.25V4.75ZM1.25 4.94C1.25 5.02563 1.24942 5.13496 1.25726 5.23095C1.26582 5.3357 1.28797 5.4886 1.36989 5.64939L2.7064 4.9684C2.72784 5.01049 2.73973 5.04817 2.74612 5.07532C2.75196 5.10009 2.75271 5.11405 2.75228 5.10881C2.75183 5.10327 2.75099 5.08887 2.7505 5.05802C2.75002 5.0272 2.75 4.99072 2.75 4.94H1.25ZM2.5316 4.7936C2.60686 4.83195 2.66805 4.89314 2.7064 4.9684L1.36989 5.64939C1.47535 5.85637 1.64363 6.02465 1.85061 6.13011L2.5316 4.7936ZM4.75 4.94C4.75 4.99072 4.74998 5.0272 4.7495 5.05802C4.74901 5.08887 4.74817 5.10327 4.74772 5.10881C4.74729 5.11405 4.74804 5.10009 4.75388 5.07532C4.76027 5.04817 4.77216 5.01049 4.7936 4.9684L6.13011 5.64939C6.21203 5.4886 6.23418 5.3357 6.24274 5.23095C6.25058 5.13496 6.25 5.02563 6.25 4.94H4.75ZM4.94 6.25C5.02563 6.25 5.13496 6.25058 5.23095 6.24274C5.3357 6.23418 5.4886 6.21203 5.64939 6.13011L4.9684 4.7936C5.01049 4.77216 5.04817 4.76027 5.07532 4.75388C5.10009 4.74804 5.11405 4.74729 5.10881 4.74772C5.10327 4.74817 5.08887 4.74901 5.05802 4.7495C5.0272 4.74998 4.99072 4.75 4.94 4.75V6.25ZM4.7936 4.9684C4.83195 4.89314 4.89314 4.83195 4.9684 4.7936L5.64939 6.13011C5.85637 6.02465 6.02465 5.85637 6.13011 5.64939L4.7936 4.9684ZM4.94 2.75C4.99072 2.75 5.0272 2.75002 5.05802 2.7505C5.08887 2.75099 5.10327 2.75183 5.10881 2.75228C5.11405 2.75271 5.10009 2.75196 5.07532 2.74612C5.04817 2.73973 5.01049 2.72784 4.9684 2.7064L5.64939 1.36989C5.4886 1.28797 5.3357 1.26582 5.23095 1.25726C5.13496 1.24942 5.02563 1.25 4.94 1.25V2.75ZM6.25 2.56C6.25 2.47437 6.25058 2.36504 6.24274 2.26905C6.23418 2.1643 6.21203 2.0114 6.13011 1.85061L4.7936 2.5316C4.77216 2.48951 4.76027 2.45183 4.75388 2.42468C4.74804 2.39991 4.74729 2.38595 4.74772 2.39119C4.74817 2.39673 4.74901 2.41113 4.7495 2.44198C4.74998 2.4728 4.75 2.50928 4.75 2.56H6.25ZM4.9684 2.7064C4.89314 2.66805 4.83195 2.60686 4.7936 2.5316L6.13011 1.85061C6.02465 1.64363 5.85637 1.47535 5.64939 1.36989L4.9684 2.7064ZM2.56 1.25C2.47437 1.25 2.36504 1.24942 2.26905 1.25726C2.1643 1.26582 2.0114 1.28797 1.85061 1.36989L2.5316 2.7064C2.48951 2.72784 2.45183 2.73973 2.42468 2.74612C2.39991 2.75196 2.38595 2.75271 2.39119 2.75228C2.39673 2.75183 2.41113 2.75099 2.44198 2.7505C2.4728 2.75002 2.50928 2.75 2.56 2.75V1.25ZM2.75 2.56C2.75 2.50928 2.75002 2.4728 2.7505 2.44198C2.75099 2.41113 2.75183 2.39673 2.75228 2.39119C2.75271 2.38595 2.75196 2.39991 2.74612 2.42468C2.73973 2.45183 2.72784 2.48951 2.7064 2.5316L1.36989 1.85061C1.28797 2.0114 1.26582 2.1643 1.25726 2.26905C1.24942 2.36504 1.25 2.47437 1.25 2.56H2.75ZM1.85061 1.36989C1.64363 1.47535 1.47535 1.64363 1.36989 1.85061L2.7064 2.5316C2.66805 2.60686 2.60686 2.66805 2.5316 2.7064L1.85061 1.36989ZM8.3 4.5H13.41V3H8.3V4.5ZM14.9 5.99V6.9H16.4V5.99H14.9ZM14.9 6.9C14.9 7.23642 14.8996 7.45118 14.8884 7.61496C14.8777 7.77202 14.8596 7.82672 14.8505 7.84874L16.2363 8.42277C16.3338 8.18751 16.369 7.9505 16.3849 7.71707C16.4004 7.49038 16.4 7.2159 16.4 6.9H14.9ZM13.55 9.75C13.8659 9.75 14.1404 9.75041 14.3671 9.73494C14.6005 9.71901 14.8375 9.68379 15.0728 9.58634L14.4987 8.20052C14.4767 8.20964 14.422 8.2277 14.265 8.23842C14.1012 8.24959 13.8864 8.25 13.55 8.25V9.75ZM14.8505 7.84874C14.7846 8.00801 14.658 8.13455 14.4987 8.20052L15.0728 9.58634C15.5996 9.36813 16.0181 8.94958 16.2363 8.42277L14.8505 7.84874ZM13.41 4.5C13.8144 4.5 14.0726 4.50058 14.2684 4.51658C14.4555 4.53187 14.5187 4.5574 14.5451 4.57085L15.2261 3.23434C14.953 3.09519 14.6704 3.04443 14.3906 3.02156C14.1195 2.99942 13.7897 3 13.41 3V4.5ZM16.4 5.99C16.4 5.61034 16.4006 5.28049 16.3784 5.00941C16.3556 4.72958 16.3048 4.44701 16.1657 4.17392L14.8292 4.85491C14.8426 4.88129 14.8681 4.94448 14.8834 5.13156C14.8994 5.32738 14.9 5.58559 14.9 5.99H16.4ZM14.5451 4.57085C14.6674 4.63316 14.7668 4.7326 14.8292 4.85491L16.1657 4.17392C15.9595 3.76937 15.6306 3.44046 15.2261 3.23434L14.5451 4.57085ZM1.6 11.1V12.01H3.1V11.1H1.6ZM4.59 15H9.7V13.5H4.59V15ZM1.6 12.01C1.6 12.3897 1.59942 12.7195 1.62156 12.9906C1.64443 13.2704 1.69519 13.553 1.83434 13.8261L3.17085 13.1451C3.1574 13.1187 3.13187 13.0555 3.11658 12.8684C3.10058 12.6726 3.1 12.4144 3.1 12.01H1.6ZM4.59 13.5C4.18559 13.5 3.92738 13.4994 3.73156 13.4834C3.54448 13.4681 3.48129 13.4426 3.45491 13.4292L2.77392 14.7657C3.04701 14.9048 3.32958 14.9556 3.60941 14.9784C3.88049 15.0006 4.21034 15 4.59 15V13.5ZM1.83434 13.8261C2.04046 14.2306 2.36937 14.5595 2.77392 14.7657L3.45491 13.4292C3.3326 13.3668 3.23316 13.2674 3.17085 13.1451L1.83434 13.8261ZM4.45 8.25C4.1341 8.25 3.85962 8.24959 3.63293 8.26506C3.3995 8.28099 3.16249 8.31621 2.92723 8.41366L3.50126 9.79948C3.52328 9.79036 3.57798 9.7723 3.73504 9.76158C3.89882 9.75041 4.11358 9.75 4.45 9.75V8.25ZM3.1 11.1C3.1 10.7636 3.10041 10.5488 3.11158 10.385C3.1223 10.228 3.14036 10.1733 3.14948 10.1513L1.76366 9.57723C1.66621 9.81249 1.63099 10.0495 1.61506 10.2829C1.59959 10.5096 1.6 10.7841 1.6 11.1H3.1ZM2.92723 8.41366C2.40042 8.63187 1.98187 9.05042 1.76366 9.57723L3.14948 10.1513C3.21545 9.99199 3.34199 9.86545 3.50126 9.79948L2.92723 8.41366Z" fill="#435160"/>
</g>
</svg>
