<svg width="14" height="14" viewBox="0 0 14 14" fill="none" xmlns="http://www.w3.org/2000/svg">
    <path
        d="M10.4697 3.53034C10.7626 3.82323 11.2375 3.82323 11.5304 3.53034C11.8233 3.23745 11.8233 2.76257 11.5304 2.46968L10.4697 3.53034ZM13.3709 7.67988C13.4146 7.26798 13.1162 6.89862 12.7043 6.85489C12.2924 6.81116 11.923 7.10962 11.8793 7.52152L13.3709 7.67988ZM10.4697 10.4697C8.55347 12.3859 5.44663 12.3859 3.53038 10.4697L2.46972 11.5303C4.97175 14.0323 9.02834 14.0324 11.5304 11.5303L10.4697 10.4697ZM3.53038 10.4697C1.61414 8.55342 1.61414 5.44658 3.53038 3.53034L2.46972 2.46968C-0.0323048 4.97171 -0.0323048 9.02829 2.46972 11.5303L3.53038 10.4697ZM3.53038 3.53034C5.44663 1.6141 8.55347 1.6141 10.4697 3.53034L11.5304 2.46968C9.02834 -0.0323501 4.97175 -0.0323499 2.46972 2.46968L3.53038 3.53034ZM11.8793 7.52152C11.7649 8.59863 11.2956 9.64376 10.4697 10.4697L11.5304 11.5303C12.6076 10.4531 13.2216 9.08577 13.3709 7.67988L11.8793 7.52152Z"
        fill="#435160" />
</svg>