<svg width="18" height="18" viewBox="0 0 18 18" fill="none" xmlns="http://www.w3.org/2000/svg">
<g id="18px/ic-&#232;&#191;&#144;&#232;&#144;&#165;&#230;&#142;&#168;&#230;&#181;&#129;&#233;&#133;&#141;&#231;&#189;&#174;">
<path id="Rectangle 1438" d="M9.00049 3H4.50049C3.39592 3 2.50049 3.89543 2.50049 5V10.5C2.50049 11.6046 3.39592 12.5 4.50049 12.5H9.00049M9.00049 3H13.5005C14.6051 3 15.5005 3.89543 15.5005 5V10.5C15.5005 11.6046 14.6051 12.5 13.5005 12.5H9.00049M9.00049 3V1.5M9.00049 12.5V14M9.00049 14L5.00049 16.5M9.00049 14L13.0005 16.5" stroke="#435160" stroke-width="1.5" stroke-linecap="round" stroke-linejoin="round"/>
<path id="Vector 1" d="M4.47016 8.46967C4.17726 8.76256 4.17726 9.23744 4.47016 9.53033C4.76305 9.82322 5.23793 9.82322 5.53082 9.53033L4.47016 8.46967ZM7.00049 7L7.29593 6.31064C7.01405 6.18983 6.68701 6.25282 6.47016 6.46967L7.00049 7ZM10.5005 8.5L10.205 9.18936C10.4869 9.31017 10.814 9.24718 11.0308 9.03033L10.5005 8.5ZM13.5308 6.53033C13.8237 6.23744 13.8237 5.76256 13.5308 5.46967C13.2379 5.17678 12.7631 5.17678 12.4702 5.46967L13.5308 6.53033ZM5.53082 9.53033L7.53082 7.53033L6.47016 6.46967L4.47016 8.46967L5.53082 9.53033ZM6.70505 7.68936L10.205 9.18936L10.7959 7.81064L7.29593 6.31064L6.70505 7.68936ZM11.0308 9.03033L13.5308 6.53033L12.4702 5.46967L9.97016 7.96967L11.0308 9.03033Z" fill="#435160"/>
</g>
</svg>
