<svg width="19" height="18" viewBox="0 0 19 18" fill="none" xmlns="http://www.w3.org/2000/svg">
<g id="18px/ ic-&#229;&#134;&#133;&#229;&#174;&#185;&#229;&#174;&#137;&#229;&#133;&#168;&#231;&#174;&#161;&#231;&#144;&#134;">
<path id="Rectangle 1442" d="M3 2.13834L2.92537 1.39206C2.54197 1.4304 2.25 1.75303 2.25 2.13834L3 2.13834ZM15 2.13834H15.75C15.75 1.75303 15.458 1.4304 15.0746 1.39206L15 2.13834ZM15 12.4999L15.5087 13.051C15.6625 12.909 15.75 12.7092 15.75 12.4999H15ZM3 12.4999H2.25C2.25 12.7092 2.3375 12.909 2.49133 13.051L3 12.4999ZM9 1.53834L9.07463 0.792062C9.025 0.787099 8.975 0.787099 8.92537 0.792062L9 1.53834ZM14.25 2.13834V12.4999H15.75V2.13834H14.25ZM3.75 12.4999V2.13834H2.25V12.4999H3.75ZM3.07463 2.88462L9.07463 2.28462L8.92537 0.792062L2.92537 1.39206L3.07463 2.88462ZM8.92537 2.28462L14.9254 2.88462L15.0746 1.39206L9.07463 0.792062L8.92537 2.28462ZM15 12.4999C14.4913 11.9487 14.4914 11.9487 14.4914 11.9487C14.4914 11.9487 14.4914 11.9487 14.4913 11.9487C14.4913 11.9488 14.4911 11.9489 14.4909 11.9491C14.4905 11.9495 14.4899 11.9501 14.489 11.9509C14.4871 11.9526 14.4843 11.9552 14.4804 11.9588C14.4726 11.9659 14.4608 11.9767 14.4452 11.991C14.4139 12.0195 14.3674 12.0617 14.3074 12.1157C14.1872 12.2237 14.0131 12.3786 13.7989 12.5648C13.3698 12.9378 12.7829 13.4333 12.1484 13.9273C11.5109 14.4235 10.8399 14.9067 10.2403 15.2622C9.94039 15.44 9.67212 15.5775 9.44478 15.6688C9.20709 15.7642 9.06424 15.7883 9 15.7883V17.2883C9.34184 17.2883 9.69104 17.1863 10.0036 17.0608C10.3264 16.9312 10.6665 16.7533 11.0052 16.5525C11.6829 16.1507 12.4104 15.6243 13.0698 15.1109C13.7322 14.5953 14.3408 14.0812 14.7829 13.697C15.0043 13.5045 15.1847 13.344 15.3103 13.2311C15.373 13.1747 15.4221 13.1301 15.4557 13.0995C15.4726 13.0841 15.4855 13.0723 15.4944 13.0641C15.4989 13.06 15.5023 13.0569 15.5047 13.0547C15.5059 13.0536 15.5068 13.0527 15.5075 13.0521C15.5078 13.0518 15.5081 13.0516 15.5083 13.0514C15.5084 13.0513 15.5085 13.0512 15.5085 13.0512C15.5086 13.0511 15.5087 13.051 15 12.4999ZM9 15.7883C8.93576 15.7883 8.79291 15.7642 8.55522 15.6688C8.32788 15.5775 8.05961 15.44 7.75972 15.2622C7.1601 14.9067 6.4891 14.4235 5.85159 13.9273C5.21706 13.4333 4.63021 12.9378 4.20109 12.5648C3.98687 12.3786 3.81277 12.2237 3.69263 12.1157C3.63258 12.0617 3.58607 12.0195 3.55482 11.991C3.53919 11.9767 3.52739 11.9659 3.51963 11.9588C3.51574 11.9552 3.51287 11.9526 3.51104 11.9509C3.51012 11.9501 3.50946 11.9495 3.50906 11.9491C3.50886 11.9489 3.50873 11.9488 3.50867 11.9487C3.50863 11.9487 3.50863 11.9487 3.50862 11.9487C3.50863 11.9487 3.50867 11.9487 3 12.4999C2.49133 13.051 2.4914 13.0511 2.49148 13.0512C2.49153 13.0512 2.49163 13.0513 2.49173 13.0514C2.49193 13.0516 2.4922 13.0518 2.49253 13.0521C2.4932 13.0527 2.49413 13.0536 2.49532 13.0547C2.4977 13.0569 2.50113 13.06 2.50558 13.0641C2.51447 13.0723 2.52744 13.0841 2.54426 13.0995C2.5779 13.1301 2.62698 13.1747 2.68975 13.2311C2.81526 13.344 2.9957 13.5045 3.21708 13.697C3.65916 14.0812 4.26775 14.5953 4.93019 15.1109C5.58965 15.6243 6.31712 16.1507 6.99478 16.5525C7.33353 16.7533 7.6736 16.9312 7.99645 17.0608C8.30896 17.1863 8.65816 17.2883 9 17.2883V15.7883Z" fill="#435160"/>
<path id="Vector 2" d="M6 8.5H9M12 8.5H9M9 8.5V5.5M9 8.5V11.5" stroke="#435160" stroke-width="1.5" stroke-linecap="round" stroke-linejoin="round"/>
</g>
</svg>
