<svg width="18" height="18" viewBox="0 0 18 18" fill="none" xmlns="http://www.w3.org/2000/svg">
<g id="18px/ ic-&#232;&#174;&#190;&#231;&#189;&#174;" clip-path="url(#clip0_364_163500)">
<path id="Star 1" d="M7.06936 3.05013C7.12063 2.91601 7.14627 2.84895 7.16218 2.81188C7.85536 1.19713 10.1446 1.19713 10.8378 2.81188C10.8537 2.84895 10.8794 2.91601 10.9306 3.05013V3.05013C10.949 3.09818 10.9582 3.1222 10.9668 3.14333C11.3119 3.98778 12.1847 4.49169 13.0886 4.36834C13.1112 4.36525 13.1366 4.3612 13.1874 4.35308V4.35308C13.3292 4.33042 13.4001 4.31909 13.4402 4.31434C15.1852 4.10728 16.3298 6.08985 15.278 7.49754C15.2538 7.52985 15.2086 7.58559 15.1181 7.69705V7.69705C15.0856 7.73698 15.0694 7.75695 15.0554 7.77499C14.4967 8.49609 14.4967 9.50391 15.0554 10.225C15.0694 10.243 15.0856 10.263 15.1181 10.3029V10.3029C15.2086 10.4144 15.2538 10.4701 15.278 10.5025C16.3298 11.9101 15.1852 13.8927 13.4402 13.6857C13.4001 13.6809 13.3292 13.6696 13.1874 13.6469V13.6469C13.1366 13.6388 13.1112 13.6347 13.0886 13.6317C12.1847 13.5083 11.3119 14.0122 10.9668 14.8567C10.9582 14.8778 10.949 14.9018 10.9306 14.9499V14.9499C10.8794 15.084 10.8537 15.1511 10.8378 15.1881C10.1446 16.8029 7.85536 16.8029 7.16218 15.1881C7.14627 15.1511 7.12063 15.084 7.06936 14.9499V14.9499C7.05099 14.9018 7.0418 14.8778 7.03317 14.8567C6.68806 14.0122 5.81526 13.5083 4.91139 13.6317C4.88878 13.6347 4.86338 13.6388 4.81258 13.6469V13.6469C4.67079 13.6696 4.5999 13.6809 4.55984 13.6857C2.81483 13.8927 1.6702 11.9101 2.72202 10.5025C2.74617 10.4701 2.79142 10.4144 2.88194 10.3029V10.3029C2.91437 10.263 2.93058 10.243 2.94456 10.225C3.50331 9.50391 3.50331 8.49609 2.94456 7.77499C2.93058 7.75695 2.91437 7.73698 2.88194 7.69705V7.69705C2.79142 7.58559 2.74617 7.52985 2.72202 7.49753C1.6702 6.08985 2.81483 4.10728 4.55984 4.31434C4.5999 4.31909 4.67079 4.33042 4.81258 4.35308V4.35308C4.86338 4.3612 4.88878 4.36525 4.91139 4.36834C5.81526 4.49169 6.68806 3.98778 7.03317 3.14333C7.0418 3.1222 7.05099 3.09818 7.06936 3.05013V3.05013Z" stroke="#435160" stroke-width="1.5" stroke-linecap="round" stroke-linejoin="round"/>
<circle id="Ellipse 33" cx="9" cy="9" r="2" stroke="#435160" stroke-width="1.5" stroke-linecap="round" stroke-linejoin="round"/>
</g>
<defs>
<clipPath id="clip0_364_163500">
<rect width="18" height="18" fill="white"/>
</clipPath>
</defs>
</svg>
