<svg width="18" height="18" viewBox="0 0 18 18" fill="none" xmlns="http://www.w3.org/2000/svg">
<g id="18px/ ic-sort">
<path id="Vector" d="M4 6.25C3.58579 6.25 3.25 6.58579 3.25 7C3.25 7.41421 3.58579 7.75 4 7.75V6.25ZM14 7.75C14.4142 7.75 14.75 7.41421 14.75 7C14.75 6.58579 14.4142 6.25 14 6.25V7.75ZM4 7.75H14V6.25H4V7.75Z" fill="#919BA7"/>
<path id="Vector_2" d="M4 10.25C3.58579 10.25 3.25 10.5858 3.25 11C3.25 11.4142 3.58579 11.75 4 11.75V10.25ZM14 11.75C14.4142 11.75 14.75 11.4142 14.75 11C14.75 10.5858 14.4142 10.25 14 10.25V11.75ZM4 11.75H14V10.25H4V11.75Z" fill="#919BA7"/>
</g>
</svg>
