<svg width="18" height="18" viewBox="0 0 18 18" fill="none" xmlns="http://www.w3.org/2000/svg">
<path fill-rule="evenodd" clip-rule="evenodd" d="M10.0868 1.30072C9.41419 0.899693 8.58552 0.899693 7.91293 1.30072L3.08679 4.17824C2.41419 4.57926 1.99986 5.32038 1.99986 6.12243V11.8775C1.99986 12.6795 2.41419 13.4206 3.08679 13.8217L7.91293 16.6992C8.58552 17.1002 9.41419 17.1002 10.0868 16.6992L14.9129 13.8217C15.5855 13.4206 15.9999 12.6795 15.9999 11.8775V6.12243C15.9999 5.32038 15.5855 4.57926 14.9129 4.17824L10.0868 1.30072ZM8.63755 2.59685C8.86175 2.46317 9.13797 2.46317 9.36217 2.59685L14.1883 5.47437C14.1973 5.47971 14.2061 5.48523 14.2148 5.49092L8.99979 8.6325L3.78489 5.49097C3.79359 5.48525 3.80243 5.47972 3.8114 5.47437L8.63755 2.59685ZM3.4491 7.02135V11.8775C3.4491 12.1448 3.58721 12.3919 3.8114 12.5255L8.27517 15.187V9.92864L3.4491 7.02135ZM9.72441 15.1871L14.1883 12.5255C14.4125 12.3919 14.5506 12.1448 14.5506 11.8775V7.02126L9.72441 9.92864V15.1871Z" fill="#435160"/>
</svg>
