<svg width="19" height="18" viewBox="0 0 19 18" fill="none" xmlns="http://www.w3.org/2000/svg">
<g id="18px/ ic-&#231;&#148;&#168;&#230;&#136;&#183;&#232;&#167;&#166;&#232;&#190;&#190;">
<path id="&#229;&#189;&#162;&#231;&#138;&#182;" d="M13.6304 14.0782H12.8804C12.8804 14.0838 12.8805 14.0895 12.8806 14.0951L13.6304 14.0782ZM13.4749 14.5251L12.8957 14.0485C12.8913 14.054 12.8869 14.0595 12.8825 14.065L13.4749 14.5251ZM13.0758 14.7141L13.0889 13.9641H13.0758V14.7141ZM4.56976 14.7141L4.56832 15.4641H4.56976V14.7141ZM4.18873 14.5251L4.78886 14.0753C4.78212 14.0663 4.77519 14.0575 4.76806 14.0488L4.18873 14.5251ZM4.03318 14.0789L4.78301 14.0947C4.78312 14.0895 4.78318 14.0842 4.78318 14.0789L4.03318 14.0789ZM4.37885 10.8854L4.0658 10.2038C4.05913 10.2069 4.05251 10.21 4.04594 10.2133L4.37885 10.8854ZM7.70599 9.35707L8.01905 10.0386C8.27179 9.92251 8.43953 9.67608 8.45485 9.39838C8.47017 9.12067 8.33055 8.85729 8.09212 8.7141L7.70599 9.35707ZM6.70196 8.22443L7.3807 7.90535C7.37764 7.89884 7.37449 7.89238 7.37124 7.88596L6.70196 8.22443ZM6.40656 6.40303L5.66661 6.28004L5.66478 6.29233L6.40656 6.40303ZM6.68232 5.46937L7.37024 5.76814C7.46818 5.54262 7.44937 5.28342 7.31989 5.0744L6.68232 5.46937ZM7.36817 4.56632L6.86826 4.00722L6.86713 4.00823L7.36817 4.56632ZM11.1879 6.06094L11.9232 5.91321C11.9208 5.90129 11.9181 5.88944 11.9152 5.87765L11.1879 6.06094ZM11.2743 6.83389L10.5243 6.83389L10.5243 6.83501L11.2743 6.83389ZM10.997 8.15555L11.6812 8.46284L11.6835 8.45745L10.997 8.15555ZM9.99217 9.32263L9.60656 8.67936C9.36889 8.82183 9.22914 9.08373 9.24313 9.36048C9.25711 9.63722 9.42255 9.88371 9.67336 10.0015L9.99217 9.32263ZM10.9797 9.7864L11.3026 9.10944L11.2985 9.10753L10.9797 9.7864ZM13.284 10.8854L13.616 10.2128L13.6068 10.2084L13.284 10.8854ZM3.22008 14.4345C3.63429 14.4345 3.97008 14.0988 3.97008 13.6845C3.97008 13.2703 3.63429 12.9345 3.22008 12.9345V14.4345ZM1.43356 13.6845L1.43356 12.9345L1.42274 12.9346L1.43356 13.6845ZM1.12245 13.5379L1.71229 13.0746L1.70985 13.0716L1.12245 13.5379ZM1.00146 13.1683L1.7508 13.1998C1.75124 13.1893 1.75146 13.1788 1.75146 13.1683L1.00146 13.1683ZM1.27879 10.5938L1.53838 11.2974C1.55674 11.2907 1.57483 11.2832 1.59261 11.275L1.27879 10.5938ZM3.96329 9.35708L4.2771 10.0383C4.52841 9.92249 4.69556 9.67775 4.71197 9.40154C4.72837 9.12533 4.59136 8.86252 4.35551 8.71782L3.96329 9.35708ZM3.18316 8.52444L3.8479 8.17707L3.84463 8.17096L3.18316 8.52444ZM2.88855 7.31451L3.63855 7.32542V7.31451H2.88855ZM3.04489 6.42982L3.74826 6.69024L3.75069 6.68348L3.04489 6.42982ZM3.46912 5.7005L2.90008 5.21194L2.89899 5.21321L3.46912 5.7005ZM4.09291 5.21071L3.75377 4.54177L3.75202 4.54266L4.09291 5.21071ZM4.86362 5.02974L4.85899 5.77974H4.86362V5.02974ZM5.38292 5.11581L5.63361 4.40895L5.63171 4.40828L5.38292 5.11581ZM5.45964 5.97898C5.81294 6.19521 6.27463 6.08408 6.49086 5.73079C6.70708 5.37749 6.59596 4.9158 6.24266 4.69957L5.45964 5.97898ZM11.3849 4.75776C11.0443 4.9935 10.9593 5.4607 11.195 5.80129C11.4307 6.14188 11.8979 6.22688 12.2385 5.99115L11.3849 4.75776ZM12.2964 5.12497L12.5507 5.83057L12.5534 5.82956L12.2964 5.12497ZM12.833 5.0306L12.833 5.78061L12.8366 5.78059L12.833 5.0306ZM13.6131 5.21068L13.9459 4.53852L13.945 4.53809L13.6131 5.21068ZM14.2456 5.70047L13.6782 6.19096L13.6787 6.19154L14.2456 5.70047ZM14.6698 6.4298L13.9665 6.6902L13.9671 6.69193L14.6698 6.4298ZM14.5308 8.50757L15.189 8.86701L15.1897 8.86584L14.5308 8.50757ZM13.786 9.34022L13.379 8.71024C13.1503 8.85797 13.0197 9.11801 13.0376 9.38966C13.0556 9.66131 13.2193 9.9019 13.4654 10.0183L13.786 9.34022ZM16.4375 10.5938L16.7682 9.92052L16.758 9.91573L16.4375 10.5938ZM16.7148 13.169H15.9648C15.9648 13.1789 15.965 13.1889 15.9654 13.1988L16.7148 13.169ZM16.5938 13.5379L16.0059 13.0722L16.0052 13.0731L16.5938 13.5379ZM16.2819 13.6833L16.2984 12.9334C16.2929 12.9333 16.2874 12.9333 16.2819 12.9333V13.6833ZM14.4436 12.9333C14.0293 12.9333 13.6936 13.2691 13.6936 13.6833C13.6936 14.0975 14.0293 14.4333 14.4436 14.4333V12.9333ZM12.8804 11.4685V14.0782H14.3804V11.4685H12.8804ZM12.8806 14.0951C12.8802 14.0756 12.887 14.0591 12.8957 14.0485L14.054 15.0017C14.271 14.738 14.388 14.4051 14.3802 14.0613L12.8806 14.0951ZM12.8825 14.065C12.9359 13.9964 13.0137 13.9629 13.0889 13.9642L13.0627 15.464C13.4506 15.4708 13.8251 15.2969 14.0672 14.9852L12.8825 14.065ZM13.0758 13.9641H4.56976V15.4641H13.0758V13.9641ZM4.57121 13.9641C4.65142 13.9643 4.73356 14.0015 4.78886 14.0753L3.58861 14.9749C3.82161 15.2858 4.18676 15.4634 4.56832 15.4641L4.57121 13.9641ZM4.76806 14.0488C4.77664 14.0592 4.78342 14.0754 4.78301 14.0947L3.28334 14.0632C3.27612 14.4062 3.39301 14.7382 3.60941 15.0014L4.76806 14.0488ZM4.78318 14.0789V11.4685H3.28318V14.0789H4.78318ZM4.78318 11.4685C4.78318 11.437 4.78914 11.4582 4.76477 11.4993C4.75339 11.5184 4.7398 11.5342 4.72712 11.5455C4.71497 11.5564 4.70799 11.5593 4.71177 11.5574L4.04594 10.2133C3.81941 10.3255 3.61599 10.4957 3.47462 10.7341C3.33496 10.9696 3.28318 11.2253 3.28318 11.4685H4.78318ZM4.69191 11.5669L8.01905 10.0386L7.39293 8.67553L4.0658 10.2038L4.69191 11.5669ZM8.09212 8.7141C7.7897 8.53249 7.55274 8.27131 7.3807 7.90535L6.02322 8.54351C6.31313 9.16019 6.74553 9.65512 7.31987 10L8.09212 8.7141ZM7.37124 7.88596C7.15572 7.4598 7.07853 6.9816 7.14835 6.51373L5.66478 6.29233C5.54888 7.06898 5.67767 7.86092 6.03268 8.5629L7.37124 7.88596ZM7.14641 6.526C7.18978 6.26507 7.26505 6.01034 7.37024 5.76814L5.9944 5.17059C5.84033 5.52532 5.73019 5.89814 5.66671 6.28006L7.14641 6.526ZM7.31989 5.0744C7.39638 5.19787 7.41888 5.31453 7.42632 5.38323C7.43403 5.45454 7.42956 5.51209 7.42542 5.54625C7.41736 5.6128 7.40167 5.66019 7.39648 5.67541C7.38466 5.71006 7.37545 5.72512 7.38234 5.71204C7.39285 5.69208 7.42089 5.64459 7.46945 5.5759C7.56578 5.43963 7.70787 5.26925 7.86921 5.1244L6.86713 4.00823C6.60738 4.24144 6.39279 4.5004 6.24459 4.71004C6.17089 4.8143 6.10471 4.91892 6.05499 5.01336C6.03177 5.05749 6.00095 5.12034 5.97677 5.19124C5.96539 5.22459 5.94583 5.28723 5.9363 5.36588C5.93113 5.40857 5.90192 5.63378 6.04474 5.86433L7.31989 5.0744ZM7.86809 5.12541C8.15559 4.86834 8.46675 4.75 8.8318 4.75V3.25C8.08754 3.25 7.42295 3.51124 6.86826 4.00723L7.86809 5.12541ZM8.8318 4.75C9.20634 4.75 9.52375 4.87174 9.81613 5.13823L10.8266 4.02962C10.2642 3.51703 9.58856 3.25 8.8318 3.25V4.75ZM9.81613 5.13823C10.1282 5.42263 10.3444 5.78282 10.4606 6.24423L11.9152 5.87765C11.7313 5.14826 11.3693 4.52428 10.8266 4.02962L9.81613 5.13823ZM10.4526 6.20867C10.5028 6.4585 10.5243 6.66562 10.5243 6.83389H12.0243C12.0243 6.54298 11.9877 6.23429 11.9232 5.91321L10.4526 6.20867ZM10.5243 6.83501C10.5248 7.18457 10.4523 7.53111 10.3104 7.85366L11.6835 8.45745C11.909 7.94474 12.0252 7.39187 12.0243 6.83277L10.5243 6.83501ZM10.3128 7.84828C10.1377 8.23824 9.90028 8.50328 9.60656 8.67936L10.3778 9.9659C10.9624 9.61546 11.3943 9.10143 11.6812 8.46283L10.3128 7.84828ZM9.67336 10.0015L10.6609 10.4653L11.2985 9.10753L10.311 8.64376L9.67336 10.0015ZM10.6568 10.4633L12.9611 11.5623L13.6068 10.2084L11.3026 9.10945L10.6568 10.4633ZM12.9519 11.5579C12.9559 11.5598 12.949 11.557 12.9369 11.5461C12.9242 11.5348 12.9105 11.519 12.899 11.4998C12.8745 11.4584 12.8804 11.437 12.8804 11.4685H14.3804C14.3804 11.2253 14.3286 10.9693 14.1886 10.7336C14.0468 10.495 13.8429 10.3249 13.616 10.2129L12.9519 11.5579ZM3.22008 12.9345H1.43356V14.4345H3.22008V12.9345ZM1.42274 12.9346C1.52929 12.9331 1.63817 12.9803 1.71229 13.0746L0.532617 14.0011C0.754613 14.2838 1.0945 14.4395 1.44439 14.4345L1.42274 12.9346ZM1.70985 13.0716C1.7369 13.1056 1.75285 13.151 1.7508 13.1998L0.252128 13.1367C0.238863 13.4519 0.340504 13.7592 0.53505 14.0042L1.70985 13.0716ZM1.75146 13.1683V11.0744H0.251465V13.1683H1.75146ZM1.75146 11.0744C1.75146 11.034 1.75961 11.0721 1.72032 11.1401C1.69985 11.1755 1.67089 11.211 1.63416 11.2412C1.59796 11.271 1.56338 11.2882 1.53838 11.2974L1.0192 9.89015C0.774329 9.98049 0.561395 10.1476 0.421467 10.3898C0.289668 10.6179 0.251465 10.8623 0.251465 11.0744H1.75146ZM1.59261 11.275L4.2771 10.0383L3.64947 8.67589L0.964975 9.91261L1.59261 11.275ZM4.35551 8.71782C4.13704 8.58377 3.9624 8.39625 3.84787 8.17708L2.51844 8.87179C2.7603 9.33463 3.12479 9.72253 3.57106 9.99634L4.35551 8.71782ZM3.84463 8.17096C3.70463 7.90897 3.6342 7.61852 3.63847 7.32542L2.13862 7.30359C2.13064 7.85219 2.26267 8.39324 2.52168 8.87792L3.84463 8.17096ZM3.63855 7.31451C3.63855 7.09214 3.67609 6.88506 3.74823 6.69023L2.34154 6.16942C2.20627 6.53479 2.13855 6.91852 2.13855 7.31451H3.63855ZM3.75069 6.68348C3.81527 6.50378 3.91275 6.33579 4.03926 6.18779L2.89899 5.21321C2.65547 5.49813 2.46559 5.82417 2.33908 6.17617L3.75069 6.68348ZM4.03817 6.18905C4.14689 6.06242 4.28109 5.95669 4.43381 5.87876L3.75202 4.54266C3.42702 4.7085 3.13734 4.93559 2.90008 5.21194L4.03817 6.18905ZM4.43206 5.87965C4.56253 5.8135 4.70917 5.7788 4.85899 5.77972L4.86824 4.27975C4.48168 4.27737 4.0991 4.36669 3.75377 4.54177L4.43206 5.87965ZM4.86362 5.77974C4.96748 5.77974 5.05668 5.79611 5.13412 5.82334L5.63171 4.40828C5.38705 4.32225 5.12899 4.27974 4.86362 4.27974V5.77974ZM5.13222 5.82267C5.24513 5.86272 5.35425 5.91448 5.45964 5.97898L6.24266 4.69957C6.04794 4.5804 5.84438 4.4837 5.63361 4.40895L5.13222 5.82267ZM12.2385 5.99115C12.3342 5.92494 12.4396 5.87059 12.5507 5.83057L12.0422 4.41937C11.8092 4.50332 11.5877 4.61734 11.3849 4.75776L12.2385 5.99115ZM12.5534 5.82956C12.642 5.79726 12.7364 5.7806 12.833 5.7806V4.2806C12.5635 4.2806 12.295 4.32717 12.0394 4.42037L12.5534 5.82956ZM12.8366 5.78059C12.991 5.77985 13.1433 5.81517 13.2813 5.88327L13.945 4.53809C13.5991 4.36742 13.2172 4.27876 12.8294 4.28061L12.8366 5.78059ZM13.2804 5.88284C13.4318 5.95779 13.5674 6.06277 13.6782 6.19096L14.813 5.20998C14.5718 4.93103 14.2768 4.70235 13.9459 4.53852L13.2804 5.88284ZM13.6787 6.19154C13.7936 6.32414 13.8916 6.48786 13.9665 6.6902L15.3732 6.16939C15.2407 5.81153 15.0543 5.48853 14.8124 5.2094L13.6787 6.19154ZM13.9671 6.69193C14.0385 6.8833 14.0754 7.08945 14.0754 7.31448H15.5754C15.5754 6.92115 15.5101 6.53649 15.3725 6.16766L13.9671 6.69193ZM14.0754 7.31448C14.0754 7.63118 14.0052 7.90416 13.8719 8.14931L15.1897 8.86584C15.4492 8.38854 15.5754 7.86716 15.5754 7.31448H14.0754ZM13.8725 8.14813C13.7259 8.41655 13.5586 8.59424 13.379 8.71024L14.193 9.97019C14.6152 9.69742 14.9428 9.31797 15.189 8.86701L13.8725 8.14813ZM13.4654 10.0183L16.1169 11.2718L16.758 9.91573L14.1065 8.66217L13.4654 10.0183ZM16.1068 11.2669C16.0813 11.2544 16.0322 11.2199 15.9959 11.1569C15.9624 11.0987 15.9648 11.0598 15.9648 11.0736H17.4648C17.4648 10.8593 17.4213 10.626 17.2954 10.4078C17.1668 10.1846 16.9791 10.0242 16.7681 9.92059L16.1068 11.2669ZM15.9648 11.0736V13.169H17.4648V11.0736H15.9648ZM15.9654 13.1988C15.9635 13.1506 15.9793 13.1058 16.0059 13.0722L17.1817 14.0036C17.3753 13.7592 17.4767 13.4533 17.4642 13.1392L15.9654 13.1988ZM16.0052 13.0731C16.0795 12.979 16.1895 12.9311 16.2984 12.9334L16.2655 14.4331C16.618 14.4408 16.9596 14.2849 17.1825 14.0026L16.0052 13.0731ZM16.2819 12.9333H14.4436V14.4333H16.2819V12.9333Z" fill="#435160"/>
</g>
</svg>
