<svg width="16" height="16" viewBox="0 0 16 16" fill="none" xmlns="http://www.w3.org/2000/svg">
<path d="M2.54102 4.08789C2.54102 3.53561 2.98873 3.08789 3.54102 3.08789H5.81657C6.39573 3.08789 6.95116 3.31796 7.36069 3.72748C7.77021 4.13701 8.00028 4.69244 8.00028 5.2716V12.9146C8.00028 12.4802 7.82773 12.0636 7.52059 11.7565C7.21344 11.4493 6.79687 11.2768 6.3625 11.2768H2.54102V4.08789Z" stroke="#435160" stroke-width="1.5" stroke-linecap="round" stroke-linejoin="round"/>
<path d="M13.4593 4.08789C13.4593 3.53561 13.0115 3.08789 12.4593 3.08789H10.1837C9.60455 3.08789 9.04912 3.31796 8.63959 3.72748C8.23007 4.13701 8 4.69244 8 5.2716V12.9146C8 12.4802 8.17255 12.0636 8.47969 11.7565C8.78684 11.4493 9.20341 11.2768 9.63778 11.2768H13.4593V4.08789Z" stroke="#435160" stroke-width="1.5" stroke-linecap="round" stroke-linejoin="round"/>
</svg>
