<svg width="16" height="16" viewBox="0 0 16 16" fill="none" xmlns="http://www.w3.org/2000/svg">
<g clip-path="url(#clip0_1934_138021)">
<path d="M15.3327 7.99935C15.3327 12.0494 12.0494 15.3327 7.99935 15.3327C3.94926 15.3327 0.666016 12.0494 0.666016 7.99935C0.666016 3.94926 3.94926 0.666016 7.99935 0.666016C12.0494 0.666016 15.3327 3.94926 15.3327 7.99935Z" fill="#41B052"/>
<path fill-rule="evenodd" clip-rule="evenodd" d="M11.54 5.67975C11.8485 5.95458 11.8758 6.42746 11.6009 6.73597L7.92968 10.9381C7.671 11.2342 7.21359 11.2432 6.94337 10.9577L4.82107 8.71466C4.53531 8.41625 4.54556 7.94269 4.84397 7.65693C5.14238 7.37117 5.61594 7.38142 5.9017 7.67983L7.40758 9.28548L10.4838 5.74072C10.7586 5.43222 11.2315 5.40492 11.54 5.67975Z" fill="white"/>
</g>
<defs>
<clipPath id="clip0_1934_138021">
<rect width="16" height="16" fill="white"/>
</clipPath>
</defs>
</svg>
