<svg width="16" height="16" viewBox="0 0 16 16" fill="none" xmlns="http://www.w3.org/2000/svg">
<g clip-path="url(#clip0_2227_159428)">
<path d="M15.3327 7.99935C15.3327 12.0494 12.0494 15.3327 7.99935 15.3327C3.94926 15.3327 0.666016 12.0494 0.666016 7.99935C0.666016 3.94926 3.94926 0.666016 7.99935 0.666016C12.0494 0.666016 15.3327 3.94926 15.3327 7.99935Z" fill="#EF4D37"/>
<path fill-rule="evenodd" clip-rule="evenodd" d="M6.08115 4.93783C5.8208 4.67748 5.39869 4.67748 5.13834 4.93783C4.87799 5.19818 4.87799 5.62029 5.13834 5.88064L7.25966 8.00195L5.13834 10.1233C4.87799 10.3836 4.87799 10.8057 5.13834 11.0661C5.39869 11.3264 5.8208 11.3264 6.08115 11.0661L8.20247 8.94476L10.3238 11.0661C10.5841 11.3264 11.0063 11.3264 11.2666 11.0661C11.527 10.8057 11.5269 10.3836 11.2666 10.1233L9.14528 8.00195L11.2666 5.88063C11.527 5.62028 11.527 5.19817 11.2666 4.93782C11.0063 4.67747 10.5841 4.67747 10.3238 4.93782L8.20247 7.05914L6.08115 4.93783Z" fill="white"/>
</g>
<defs>
<clipPath id="clip0_2227_159428">
<rect width="16" height="16" fill="white"/>
</clipPath>
</defs>
</svg>
